<?xml version="1.0" encoding="UTF-8" standalone="no"?>
<svg
   width="118"
   height="118"
   viewBox="0 0 118 118"
   fill="none"
   version="1.1"
   id="svg1466"
   sodipodi:docname="erpnexus-logo.svg"
   inkscape:version="1.2.2 (b0a8486541, 2022-12-01)"
   xmlns:inkscape="http://www.inkscape.org/namespaces/inkscape"
   xmlns:sodipodi="http://sodipodi.sourceforge.net/DTD/sodipodi-0.dtd"
   xmlns="http://www.w3.org/2000/svg"
   xmlns:svg="http://www.w3.org/2000/svg">
  <defs
     id="defs1470" />
  <sodipodi:namedview
     id="namedview1468"
     pagecolor="#ffffff"
     bordercolor="#000000"
     borderopacity="0.25"
     inkscape:showpageshadow="2"
     inkscape:pageopacity="0.0"
     inkscape:pagecheckerboard="0"
     inkscape:deskcolor="#d1d1d1"
     showgrid="false"
     inkscape:zoom="5.7118644"
     inkscape:cx="59"
     inkscape:cy="51.034125"
     inkscape:window-width="1850"
     inkscape:window-height="902"
     inkscape:window-x="0"
     inkscape:window-y="0"
     inkscape:window-maximized="1"
     inkscape:current-layer="svg1466" />
  <g
     id="g2436">
    <path
       fill-rule="evenodd"
       clip-rule="evenodd"
       d="M78.8631 38.557H76.9H51.38H38.6199V28.0872H78.8631V38.557ZM51.3799 63.0955V77.4915H79.1903V87.9612H38.6199V52.6257H51.3799H76.9V63.0955H51.3799Z"
       fill="white"
       id="path1464" />
    <ellipse
       style="fill:#5524b8;fill-opacity:1"
       id="path1887"
       cx="59.039665"
       cy="58.778763"
       rx="58.474777"
       ry="58.561287" />
    <g
       aria-label="HQ"
       id="text2371"
       style="font-size:48px;font-family:SansSerifBldFLF;-inkscape-font-specification:SansSerifBldFLF;fill:#5524b8">
      <path
         d="m 34.77687,53.61625 v -13.44 h -8.352 v 34.272 h 8.352 v -13.44 h 10.944 v 13.44 h 8.352 v -34.272 h -8.352 v 13.44 z"
         style="fill:#ffffff"
         id="path2373" />
      <path
         d="m 90.744882,77.18425 -3.984,-5.856 c 4.176,-3.264 6.816,-8.304 6.816,-13.92 0,-9.744 -7.872,-17.616 -17.616,-17.616 -9.744,0 -17.616,7.872 -17.616,17.616 0,9.744 7.872,17.616 17.616,17.616 1.536,0 2.976,-0.192 4.32,-0.528 l 2.688,3.936 z m -5.424,-19.824 c 0,2.832 -1.248,5.328 -3.216,7.056 l -2.112,-3.072 -7.776,1.248 2.784,4.08 c -4.752,-0.48 -8.4,-4.464 -8.4,-9.312 0,-5.184 4.176,-9.36 9.36,-9.36 5.184,0 9.36,4.176 9.36,9.36 z"
         style="fill:#ffffff"
         id="path2375" />
    </g>
  </g>
</svg>
